<?xml version="1.0" encoding="UTF-8" standalone="no"?>
<!DOCTYPE svg PUBLIC "-//W3C//DTD SVG 1.1//EN" "http://www.w3.org/Graphics/SVG/1.1/DTD/svg11.dtd">
<svg width="100%" height="100%" viewBox="0 0 5906 5906" version="1.1" xmlns="http://www.w3.org/2000/svg" xmlns:xlink="http://www.w3.org/1999/xlink" xml:space="preserve" xmlns:serif="http://www.serif.com/" style="fill-rule:evenodd;clip-rule:evenodd;stroke-linecap:round;stroke-linejoin:round;stroke-miterlimit:1.5;">
    <g transform="matrix(0.846184,0.192432,-0.192432,0.846184,805.326,126.901)">
        <g transform="matrix(0.300508,-0.953779,0.953779,0.300508,-2062.92,3192.08)">
            <text x="1144.79px" y="3002.47px" style="font-family:'AbrilFatface-Regular', 'Abril Fatface';font-size:1416.67px;fill:rgb(74,25,66);">P</text>
        </g>
        <g transform="matrix(0.639054,-0.769162,0.769162,0.639054,-1166.56,1873.39)">
            <text x="1412.78px" y="2179.64px" style="font-family:'AbrilFatface-Regular', 'Abril Fatface';font-size:1416.67px;fill:rgb(74,25,66);">o</text>
        </g>
        <g transform="matrix(0.831892,-0.554937,0.554937,0.831892,-566.815,1336.22)">
            <text x="1922.07px" y="1603.66px" style="font-family:'AbrilFatface-Regular', 'Abril Fatface';font-size:1416.67px;fill:rgb(74,25,66);">l</text>
        </g>
        <g transform="matrix(0.953744,-0.30062,0.30062,0.953744,-298.566,744.359)">
            <text x="2269.53px" y="1342.38px" style="font-family:'AbrilFatface-Regular', 'Abril Fatface';font-size:1416.67px;fill:rgb(74,25,66);">y</text>
        </g>
        <g transform="matrix(0.999757,-0.0220495,0.0220495,0.999757,-24.3186,66.3527)">
            <text x="2996.73px" y="1135.95px" style="font-family:'AbrilFatface-Regular', 'Abril Fatface';font-size:1416.67px;fill:rgb(74,25,66);">i</text>
        </g>
        <g transform="matrix(0.925325,0.379175,-0.379175,0.925325,655.997,-1238.71)">
            <text x="3472.88px" y="1046.11px" style="font-family:'AbrilFatface-Regular', 'Abril Fatface';font-size:1416.67px;fill:rgb(74,25,66);">m</text>
        </g>
        <g transform="matrix(0.65273,0.75759,-0.75759,0.65273,2802.56,-2945.76)">
            <text x="4614.46px" y="1584.1px" style="font-family:'AbrilFatface-Regular', 'Abril Fatface';font-size:1416.67px;fill:rgb(74,25,66);">e</text>
        </g>
    </g>
    <g transform="matrix(0.855675,-0.282483,0.282483,0.855675,-678.908,1469.49)">
        <g transform="matrix(0.910323,0.623238,-0.636887,0.930259,2574.45,-1865.99)">
            <path d="M1732.23,3647.1C1706.13,3694.83 1717.68,3764.17 1782.93,3820.11C1862.45,3888.28 2073.64,3966.61 2172.96,4042.4C2217.82,4076.62 2271.09,4225.58 2352.12,4335.44C2420.96,4428.77 2517.15,4483.87 2567.7,4522.44C2627.54,4568.1 2825.61,4667.45 3043.59,4705.14C3232.11,4737.74 3442.47,4714.84 3573.58,4642.33C3724.64,4558.8 3835.9,4401.71 3869.44,4335.44C3928.89,4217.98 3931.28,3873.65 3971.44,3820.11C4011.6,3766.58 4302.53,3237.87 4363.57,3156.5C4396.88,3112.1 4390.71,3031.18 4327.9,2985.97C4275.61,2948.34 4208.01,2954.02 4165.79,3011.76C4089.26,3116.39 3799.37,3612.03 3756.65,3586.06C3707.31,3556.06 3969.93,2847.9 4000.17,2673.01C4009.01,2621.92 4020.33,2567.51 3938.07,2536.75C3879.89,2515 3820.25,2541.5 3790.54,2613.9C3679.62,2884.13 3483.95,3518.98 3443.04,3494.37C3402.13,3469.76 3558.1,2588.12 3573.58,2466.24C3583.95,2384.57 3573.58,2351.51 3480.53,2324.47C3378.11,2294.71 3316.95,2361.75 3303.43,2417.27C3219.51,2761.94 3155.34,3460.55 3092.24,3460.55C2992.67,3460.55 2993.16,2738.94 2932.7,2476.55C2918.28,2413.95 2816.91,2392.48 2796.78,2392.48C2754.58,2392.48 2675.7,2435.09 2675.7,2487.72C2675.7,2777.72 2759.11,3364.33 2759.11,3423.13C2759.11,3534.65 2601.1,3769.07 2567.7,3784.12C2464.65,3830.53 2149.37,3610.55 1938.71,3564.26C1860.57,3547.09 1755.82,3603.95 1732.23,3647.1Z" style="fill:none;stroke:rgb(74,25,66);stroke-width:41.46px;"/>
        </g>
        <g>
            <path d="M2661.99,3220.35C2661.99,3220.35 2823.08,3509.32 2745.24,3911.33" style="fill:none;stroke:rgb(74,25,66);stroke-width:46.24px;"/>
            <path d="M3109.64,3529.18C3112.02,3787.95 3431.83,4281.53 3563.52,4317.23" style="fill:none;stroke:rgb(74,25,66);stroke-width:46.24px;"/>
            <g transform="matrix(1.06528,-0.311023,0.311023,1.06528,-1215.36,1077.36)">
                <path d="M4374.52,3121.96C4376.33,3122.34 4401.05,3117.54 4398.72,3098.83C4397.68,3090.49 4375.8,3081.73 4358.32,3092.06C4306.61,3122.62 4327.97,3160.88 4356.18,3161.41C4416.64,3162.55 4429.46,3136.94 4436.19,3129.9C4436.61,3129.46 4479.39,3076.07 4415.16,3056.26C4411.61,3055.16 4390.06,3048.52 4368.79,3054.63" style="fill:none;stroke:rgb(74,25,66);stroke-width:20.83px;"/>
            </g>
        </g>
    </g>
</svg>
